<svg xmlns="http://www.w3.org/2000/svg" width="25" height="42" viewBox="0 0 25 42">
    <g fill="none" fill-rule="nonzero" stroke="#E23B3B" stroke-linecap="round" stroke-linejoin="round" stroke-width="1.5">
        <path fill="#E63333" d="M18.21 15.366c-.345 1.96.28 5.469.631 7.335 1.077 5.748-8.957 5.514-7.573-.507 1.33-5.783 11.384-13.216 2.447-20.895 3.904 7.174 4.722 12.78 4.495 14.067z" opacity=".266"/>
        <path d="M19.61 11.376c-.694 1.043-1.173 2.704-1.4 3.99-.345 1.96.28 5.469.631 7.335 1.077 5.748-8.957 5.514-7.573-.507 1.33-5.783 11.384-13.216 2.447-20.895C17.62 8.473 2.963 14.743 1.707 25.17c-.842 6.978 3.232 13.856 14.022 16.031 0 0-1.3-2.677 2.505-5.915 2.282-1.942 4.523-3.48 5.395-5.79 2.53-6.704-5.098-11.62-4.02-18.12z"/>
    </g>
</svg>
